
<svg width="100" height="100" viewBox="0 0 100 100" xmlns="http://www.w3.org/2000/svg">
  <defs>
    <pattern id="satellite" x="0" y="0" width="100" height="100" patternUnits="userSpaceOnUse">
      <circle cx="10" cy="10" r="1" fill="rgba(30, 144, 255, 0.2)" />
      <circle cx="30" cy="10" r="0.5" fill="rgba(30, 144, 255, 0.15)" />
      <circle cx="50" cy="10" r="0.8" fill="rgba(30, 144, 255, 0.2)" />
      <circle cx="70" cy="10" r="0.5" fill="rgba(30, 144, 255, 0.15)" />
      <circle cx="90" cy="10" r="1" fill="rgba(30, 144, 255, 0.2)" />
      
      <circle cx="10" cy="30" r="0.5" fill="rgba(30, 144, 255, 0.15)" />
      <circle cx="30" cy="30" r="1" fill="rgba(30, 144, 255, 0.2)" />
      <circle cx="50" cy="30" r="0.5" fill="rgba(30, 144, 255, 0.15)" />
      <circle cx="70" cy="30" r="0.8" fill="rgba(30, 144, 255, 0.2)" />
      <circle cx="90" cy="30" r="0.5" fill="rgba(30, 144, 255, 0.15)" />
      
      <circle cx="10" cy="50" r="0.8" fill="rgba(30, 144, 255, 0.2)" />
      <circle cx="30" cy="50" r="0.5" fill="rgba(30, 144, 255, 0.15)" />
      <circle cx="50" cy="50" r="1" fill="rgba(30, 144, 255, 0.2)" />
      <circle cx="70" cy="50" r="0.5" fill="rgba(30, 144, 255, 0.15)" />
      <circle cx="90" cy="50" r="0.8" fill="rgba(30, 144, 255, 0.2)" />
      
      <circle cx="10" cy="70" r="0.5" fill="rgba(30, 144, 255, 0.15)" />
      <circle cx="30" cy="70" r="0.8" fill="rgba(30, 144, 255, 0.2)" />
      <circle cx="50" cy="70" r="0.5" fill="rgba(30, 144, 255, 0.15)" />
      <circle cx="70" cy="70" r="1" fill="rgba(30, 144, 255, 0.2)" />
      <circle cx="90" cy="70" r="0.5" fill="rgba(30, 144, 255, 0.15)" />
      
      <circle cx="10" cy="90" r="1" fill="rgba(30, 144, 255, 0.2)" />
      <circle cx="30" cy="90" r="0.5" fill="rgba(30, 144, 255, 0.15)" />
      <circle cx="50" cy="90" r="0.8" fill="rgba(30, 144, 255, 0.2)" />
      <circle cx="70" cy="90" r="0.5" fill="rgba(30, 144, 255, 0.15)" />
      <circle cx="90" cy="90" r="1" fill="rgba(30, 144, 255, 0.2)" />
    </pattern>
  </defs>
  <rect x="0" y="0" width="100" height="100" fill="url(#satellite)" />
</svg>
