
<svg width="200" height="200" viewBox="0 0 200 200" xmlns="http://www.w3.org/2000/svg">
  <defs>
    <pattern id="topo" x="0" y="0" width="200" height="200" patternUnits="userSpaceOnUse">
      <path d="M0,50 Q50,30 100,50 T200,50" fill="none" stroke="rgba(47, 82, 51, 0.1)" stroke-width="0.5" />
      <path d="M0,70 Q50,50 100,70 T200,70" fill="none" stroke="rgba(47, 82, 51, 0.1)" stroke-width="0.5" />
      <path d="M0,90 Q50,70 100,90 T200,90" fill="none" stroke="rgba(47, 82, 51, 0.1)" stroke-width="0.5" />
      <path d="M0,110 Q50,90 100,110 T200,110" fill="none" stroke="rgba(47, 82, 51, 0.1)" stroke-width="0.5" />
      <path d="M0,130 Q50,110 100,130 T200,130" fill="none" stroke="rgba(47, 82, 51, 0.1)" stroke-width="0.5" />
      <path d="M0,150 Q50,130 100,150 T200,150" fill="none" stroke="rgba(47, 82, 51, 0.1)" stroke-width="0.5" />
      <path d="M0,170 Q50,150 100,170 T200,170" fill="none" stroke="rgba(47, 82, 51, 0.1)" stroke-width="0.5" />
    </pattern>
  </defs>
  <rect x="0" y="0" width="200" height="200" fill="url(#topo)" />
</svg>
